  0
SECTION
  2
HEADER
  9
$ACADVER
  1
AC1015
  9
$ACADMAINTVER
 70
     6
  9
$DWGCODEPAGE
  3
ANSI_1252
  9
$INSBASE
 10
0.0
 20
0.0
 30
0.0
  9
$EXTMIN
 10
-50.0
 20
-50.0
 30
0.0
  9
$EXTMAX
 10
50.0
 20
50.0
 30
0.0
  9
$LIMMIN
 10
0.0
 20
0.0
  9
$LIMMAX
 10
420.0
 20
297.0
  9
$ORTHOMODE
 70
     0
  9
$REGENMODE
 70
     1
  9
$FILLMODE
 70
     1
  9
$QTEXTMODE
 70
     0
  9
$MIRRTEXT
 70
     1
  9
$LTSCALE
 40
1.0
  9
$ATTMODE
 70
     1
  9
$TEXTSIZE
 40
3.5
  9
$TRACEWID
 40
1.0
  9
$TEXTSTYLE
  7
Standard
  9
$CLAYER
  8
0
  9
$CELTYPE
  6
ByLayer
  9
$CECOLOR
 62
   256
  9
$CELTSCALE
 40
1.0
  9
$DISPSILH
 70
     0
  9
$DIMSCALE
 40
1.0
  9
$DIMASZ
 40
3.302
  9
$DIMEXO
 40
0.0
  9
$DIMDLI
 40
3.75
  9
$DIMRND
 40
0.0
  9
$DIMDLE
 40
0.0
  9
$DIMEXE
 40
3.175
  9
$DIMTP
 40
0.0
  9
$DIMTM
 40
0.0
  9
$DIMTXT
 40
3.5
  9
$DIMCEN
 40
2.5
  9
$DIMTSZ
 40
0.0
  9
$DIMTOL
 70
     0
  9
$DIMLIM
 70
     0
  9
$DIMTIH
 70
     1
  9
$DIMTOH
 70
     1
  9
$DIMSE1
 70
     0
  9
$DIMSE2
 70
     0
  9
$DIMTAD
 70
     1
  9
$DIMZIN
 70
     1
  9
$DIMBLK
  1

  9
$DIMASO
 70
     1
  9
$DIMSHO
 70
     1
  9
$DIMPOST
  1

  9
$DIMAPOST
  1

  9
$DIMALT
 70
     0
  9
$DIMALTD
 70
     3
  9
$DIMALTF
 40
0.0393700787
  9
$DIMLFAC
 40
1.0
  9
$DIMTOFL
 70
     1
  9
$DIMTVP
 40
0.0
  9
$DIMTIX
 70
     0
  9
$DIMSOXD
 70
     0
  9
$DIMSAH
 70
     0
  9
$DIMBLK1
  1

  9
$DIMBLK2
  1

  9
$DIMSTYLE
  2
ISO-25
  9
$DIMCLRD
 70
     0
  9
$DIMCLRE
 70
     0
  9
$DIMCLRT
 70
     0
  9
$DIMTFAC
 40
1.0
  9
$DIMGAP
 40
1.524
  9
$DIMJUST
 70
     0
  9
$DIMSD1
 70
     0
  9
$DIMSD2
 70
     0
  9
$DIMTOLJ
 70
     0
  9
$DIMTZIN
 70
     1
  9
$DIMALTZ
 70
     0
  9
$DIMALTTZ
 70
     0
  9
$DIMUPT
 70
     0
  9
$DIMDEC
 70
     2
  9
$DIMTDEC
 70
     2
  9
$DIMALTU
 70
     2
  9
$DIMALTTD
 70
     3
  9
$DIMTXSTY
  7
Standard
  9
$DIMAUNIT
 70
     0
  9
$DIMADEC
 70
     2
  9
$DIMALTRND
 40
0.0
  9
$DIMAZIN
 70
     0
  9
$DIMDSEP
 70
    44
  9
$DIMATFIT
 70
     3
  9
$DIMFRAC
 70
     0
  9
$DIMLDRBLK
  1

  9
$DIMLUNIT
 70
     2
  9
$DIMLWD
 70
    -2
  9
$DIMLWE
 70
    -2
  9
$DIMTMOVE
 70
     0
  9
$LUNITS
 70
     2
  9
$LUPREC
 70
     2
  9
$SKETCHINC
 40
1.0
  9
$FILLETRAD
 40
0.0
  9
$AUNITS
 70
     0
  9
$AUPREC
 70
     2
  9
$MENU
  1
.
  9
$ELEVATION
 40
0.0
  9
$PELEVATION
 40
0.0
  9
$THICKNESS
 40
0.0
  9
$LIMCHECK
 70
     0
  9
$CHAMFERA
 40
0.0
  9
$CHAMFERB
 40
0.0
  9
$CHAMFERC
 40
0.0
  9
$CHAMFERD
 40
0.0
  9
$SKPOLY
 70
     0
  9
$TDCREATE
 40
2460058.528966609
  9
$TDUCREATE
 40
2460058.695633276
  9
$TDUPDATE
 40
2460058.529148924
  9
$TDUUPDATE
 40
2460058.69581559
  9
$TDINDWG
 40
0.0000000116
  9
$TDUSRTIMER
 40
0.0000000116
  9
$USRTIMER
 70
     1
  9
$ANGBASE
 50
0.0
  9
$ANGDIR
 70
     0
  9
$PDMODE
 70
     0
  9
$PDSIZE
 40
-1.0
  9
$PLINEWID
 40
0.0
  9
$SPLFRAME
 70
     0
  9
$SPLINETYPE
 70
     6
  9
$SPLINESEGS
 70
     8
  9
$HANDSEED
  5
A0
  9
$SURFTAB1
 70
     6
  9
$SURFTAB2
 70
     6
  9
$SURFTYPE
 70
     6
  9
$SURFU
 70
     6
  9
$SURFV
 70
     6
  9
$UCSBASE
  2

  9
$UCSNAME
  2

  9
$UCSORG
 10
0.0
 20
0.0
 30
0.0
  9
$UCSXDIR
 10
1.0
 20
0.0
 30
0.0
  9
$UCSYDIR
 10
0.0
 20
1.0
 30
0.0
  9
$UCSORTHOREF
  2

  9
$UCSORTHOVIEW
 70
     0
  9
$UCSORGTOP
 10
0.0
 20
0.0
 30
0.0
  9
$UCSORGBOTTOM
 10
0.0
 20
0.0
 30
0.0
  9
$UCSORGLEFT
 10
0.0
 20
0.0
 30
0.0
  9
$UCSORGRIGHT
 10
0.0
 20
0.0
 30
0.0
  9
$UCSORGFRONT
 10
0.0
 20
0.0
 30
0.0
  9
$UCSORGBACK
 10
0.0
 20
0.0
 30
0.0
  9
$PUCSBASE
  2

  9
$PUCSNAME
  2

  9
$PUCSORG
 10
0.0
 20
0.0
 30
0.0
  9
$PUCSXDIR
 10
1.0
 20
0.0
 30
0.0
  9
$PUCSYDIR
 10
0.0
 20
1.0
 30
0.0
  9
$PUCSORTHOREF
  2

  9
$PUCSORTHOVIEW
 70
     0
  9
$PUCSORGTOP
 10
0.0
 20
0.0
 30
0.0
  9
$PUCSORGBOTTOM
 10
0.0
 20
0.0
 30
0.0
  9
$PUCSORGLEFT
 10
0.0
 20
0.0
 30
0.0
  9
$PUCSORGRIGHT
 10
0.0
 20
0.0
 30
0.0
  9
$PUCSORGFRONT
 10
0.0
 20
0.0
 30
0.0
  9
$PUCSORGBACK
 10
0.0
 20
0.0
 30
0.0
  9
$USERI1
 70
     0
  9
$USERI2
 70
     0
  9
$USERI3
 70
     0
  9
$USERI4
 70
     0
  9
$USERI5
 70
     0
  9
$USERR1
 40
0.0
  9
$USERR2
 40
0.0
  9
$USERR3
 40
0.0
  9
$USERR4
 40
0.0
  9
$USERR5
 40
0.0
  9
$WORLDVIEW
 70
     1
  9
$SHADEDGE
 70
     3
  9
$SHADEDIF
 70
    70
  9
$TILEMODE
 70
     1
  9
$MAXACTVP
 70
    64
  9
$PINSBASE
 10
0.0
 20
0.0
 30
0.0
  9
$PLIMCHECK
 70
     0
  9
$PEXTMIN
 10
1.0000000000E+20
 20
1.0000000000E+20
 30
1.0000000000E+20
  9
$PEXTMAX
 10
-1.0000000000E+20
 20
-1.0000000000E+20
 30
-1.0000000000E+20
  9
$PLIMMIN
 10
0.0
 20
0.0
  9
$PLIMMAX
 10
420.0
 20
297.0
  9
$UNITMODE
 70
     0
  9
$VISRETAIN
 70
     1
  9
$PLINEGEN
 70
     0
  9
$PSLTSCALE
 70
     1
  9
$TREEDEPTH
 70
  3020
  9
$CMLSTYLE
  2
Standard
  9
$CMLJUST
 70
     0
  9
$CMLSCALE
 40
20.0
  9
$PROXYGRAPHICS
 70
     1
  9
$MEASUREMENT
 70
     1
  9
$CELWEIGHT
370
    -1
  9
$ENDCAPS
280
     0
  9
$JOINSTYLE
280
     0
  9
$LWDISPLAY
290
     1
  9
$INSUNITS
 70
     4
  9
$HYPERLINKBASE
  1

  9
$STYLESHEET
  1

  9
$XEDIT
290
     1
  9
$CEPSNTYPE
380
     0
  9
$PSTYLEMODE
290
     1
  9
$FINGERPRINTGUID
  2
{e1eac94e-b542-470b-8bac-d6a80262f4a4}
  9
$VERSIONGUID
  2
{FAEB1C32-E019-11D5-929B-00C0DF256EC4}
  9
$EXTNAMES
290
     1
  9
$PSVPSCALE
 40
0.0
  9
$OLESTARTUP
290
     0
  0
ENDSEC
  0
SECTION
  2
CLASSES
  0
CLASS
  1
ACDBDICTIONARYWDFLT
  2
AcDbDictionaryWithDefault
  3
ObjectDBX Classes
 90
        0
280
     0
281
     0
  0
CLASS
  1
VISUALSTYLE
  2
AcDbVisualStyle
  3
ObjectDBX Classes
 90
     4095
280
     0
281
     0
  0
CLASS
  1
MATERIAL
  2
AcDbMaterial
  3
ObjectDBX Classes
 90
     1153
280
     0
281
     0
  0
CLASS
  1
SCALE
  2
AcDbScale
  3
ObjectDBX Classes
 90
     1153
280
     0
281
     0
  0
CLASS
  1
TABLESTYLE
  2
AcDbTableStyle
  3
ObjectDBX Classes
 90
     4095
280
     0
281
     0
  0
CLASS
  1
MLEADERSTYLE
  2
AcDbMLeaderStyle
  3
ACDB_MLEADERSTYLE_CLASS
 90
     4095
280
     0
281
     0
  0
CLASS
  1
SUN
  2
AcDbSun
  3
SCENEOE
 90
     1153
280
     0
281
     0
  0
CLASS
  1
ACDBPLACEHOLDER
  2
AcDbPlaceHolder
  3
ObjectDBX Classes
 90
        0
280
     0
281
     0
  0
CLASS
  1
LAYOUT
  2
AcDbLayout
  3
ObjectDBX Classes
 90
        0
280
     0
281
     0
  0
ENDSEC
  0
SECTION
  2
TABLES
  0
TABLE
  2
VPORT
  5
8
330
0
100
AcDbSymbolTable
 70
     1
  0
VPORT
  5
29
330
8
100
AcDbSymbolTableRecord
100
AcDbViewportTableRecord
  2
*Active
 70
     0
 10
0.0
 20
0.0
 11
1.0
 21
1.0
 12
0.0
 22
0.0
 13
0.0
 23
0.0
 14
10.0
 24
10.0
 15
10.0
 25
10.0
 16
0.0
 26
0.0
 36
1.0
 17
0.0
 27
0.0
 37
0.0
 40
102.0
 41
1.0
 42
50.0
 43
0.0
 44
0.0
 50
0.0
 51
0.0
 71
     0
 72
   100
 73
     1
 74
     3
 75
     0
 76
     0
 77
     0
 78
     0
281
     0
 65
     1
110
0.0
120
0.0
130
0.0
111
1.0
121
0.0
131
0.0
112
0.0
122
1.0
132
0.0
 79
     0
146
0.0
  0
ENDTAB
  0
TABLE
  2
LTYPE
  5
5
330
0
100
AcDbSymbolTable
 70
     6
  0
LTYPE
  5
14
330
5
100
AcDbSymbolTableRecord
100
AcDbLinetypeTableRecord
  2
ByBlock
 70
     0
  3

 72
    65
 73
     0
 40
0.0
  0
LTYPE
  5
15
330
5
100
AcDbSymbolTableRecord
100
AcDbLinetypeTableRecord
  2
ByLayer
 70
     0
  3

 72
    65
 73
     0
 40
0.0
  0
LTYPE
  5
16
330
5
100
AcDbSymbolTableRecord
100
AcDbLinetypeTableRecord
  2
Continuous
 70
     0
  3
Solid line
 72
    65
 73
     0
 40
0.0
  0
LTYPE
  5
5E
330
5
100
AcDbSymbolTableRecord
100
AcDbLinetypeTableRecord
  2
HIDDEN
 70
     0
  3
Hidden __ __ __ __ __ __ __ __ __ __ __ __ __ __
 72
    65
 73
     2
 40
1.905
 49
1.27
 74
     0
 49
-0.635
 74
     0
  0
LTYPE
  5
5F
330
5
100
AcDbSymbolTableRecord
100
AcDbLinetypeTableRecord
  2
PHANTOM
 70
     0
  3
Phantom ______  __  __  ______  __  __  ______
 72
    65
 73
     6
 40
12.7
 49
6.35
 74
     0
 49
-1.27
 74
     0
 49
1.27
 74
     0
 49
-1.27
 74
     0
 49
1.27
 74
     0
 49
-1.27
 74
     0
  0
LTYPE
  5
60
330
5
100
AcDbSymbolTableRecord
100
AcDbLinetypeTableRecord
  2
CENTER
 70
     0
  3
Center ____ _ ____ _ ____ _ ____ _ ____ _ ____
 72
    65
 73
     4
 40
10.16
 49
6.35
 74
     0
 49
-1.27
 74
     0
 49
1.27
 74
     0
 49
-1.27
 74
     0
  0
LTYPE
  5
61
330
5
100
AcDbSymbolTableRecord
100
AcDbLinetypeTableRecord
  2
CENTERX2
 70
     0
  3
Center (2x) ________  __  ________  __  _____
 72
    65
 73
     4
 40
20.32
 49
12.7
 74
     0
 49
-2.54
 74
     0
 49
2.54
 74
     0
 49
-2.54
 74
     0
  0
LTYPE
  5
62
330
5
100
AcDbSymbolTableRecord
100
AcDbLinetypeTableRecord
  2
DOT2
 70
     0
  3
Dot (.5x) ........................................
 72
    65
 73
     2
 40
0.635
 49
0.0
 74
     0
 49
-0.635
 74
     0
  0
ENDTAB
  0
TABLE
  2
LAYER
  5
2
330
0
100
AcDbSymbolTable
 70
     1
  0
LAYER
  5
10
330
2
100
AcDbSymbolTableRecord
100
AcDbLayerTableRecord
  2
0
 70
     0
 62
     7
  6
Continuous
370
    -3
390
F
  0
ENDTAB
  0
TABLE
  2
STYLE
  5
3
330
0
100
AcDbSymbolTable
 70
     1
  0
STYLE
  5
11
330
3
100
AcDbSymbolTableRecord
100
AcDbTextStyleTableRecord
  2
Standard
 70
     0
 40
0.0
 41
1.0
 50
0.0
 71
     0
 42
3.5
  3
txt
  4

  0
ENDTAB
  0
TABLE
  2
VIEW
  5
6
330
0
100
AcDbSymbolTable
 70
     0
  0
ENDTAB
  0
TABLE
  2
UCS
  5
7
330
0
100
AcDbSymbolTable
 70
     0
  0
ENDTAB
  0
TABLE
  2
APPID
  5
9
330
0
100
AcDbSymbolTable
 70
     1
  0
APPID
  5
12
330
9
100
AcDbSymbolTableRecord
100
AcDbRegAppTableRecord
  2
ACAD
 70
     0
  0
ENDTAB
  0
TABLE
  2
DIMSTYLE
  5
A
330
0
100
AcDbSymbolTable
 70
     1
100
AcDbDimStyleTable
  0
DIMSTYLE
105
27
330
A
100
AcDbSymbolTableRecord
100
AcDbDimStyleTableRecord
  2
ISO-25
 70
     0
 41
2.5
 42
0.625
 43
3.75
 44
1.25
 73
     0
 74
     0
 77
     1
 78
     8
140
2.5
141
2.5
143
0.0393700787
147
0.625
171
     3
172
     1
178
     0
271
     2
272
     2
274
     3
278
    44
283
     0
284
     8
340
11
  0
ENDTAB
  0
TABLE
  2
BLOCK_RECORD
  5
1
330
0
100
AcDbSymbolTable
 70
     1
  0
BLOCK_RECORD
  5
1F
330
1
100
AcDbSymbolTableRecord
100
AcDbBlockTableRecord
  2
*Model_Space
340
22
  0
BLOCK_RECORD
  5
1B
330
1
100
AcDbSymbolTableRecord
100
AcDbBlockTableRecord
  2
*Paper_Space
340
1E
  0
BLOCK_RECORD
  5
23
330
1
100
AcDbSymbolTableRecord
100
AcDbBlockTableRecord
  2
*Paper_Space0
340
26
  0
ENDTAB
  0
ENDSEC
  0
SECTION
  2
BLOCKS
  0
BLOCK
  5
20
330
1F
100
AcDbEntity
  8
0
100
AcDbBlockBegin
  2
*Model_Space
 70
     0
 10
0.0
 20
0.0
 30
0.0
  3
*Model_Space
  1

  0
ENDBLK
  5
21
330
1F
100
AcDbEntity
  8
0
100
AcDbBlockEnd
  0
BLOCK
  5
1C
330
1B
100
AcDbEntity
 67
     1
  8
0
100
AcDbBlockBegin
  2
*Paper_Space
 70
     0
 10
0.0
 20
0.0
 30
0.0
  3
*Paper_Space
  1

  0
ENDBLK
  5
1D
330
1B
100
AcDbEntity
 67
     1
  8
0
100
AcDbBlockEnd
  0
BLOCK
  5
24
330
23
100
AcDbEntity
  8
0
100
AcDbBlockBegin
  2
*Paper_Space0
 70
     0
 10
0.0
 20
0.0
 30
0.0
  3
*Paper_Space0
  1

  0
ENDBLK
  5
25
330
23
100
AcDbEntity
  8
0
100
AcDbBlockEnd
  0
ENDSEC
  0
SECTION
  2
ENTITIES
  0
ARC
  5
63
330
1F
100
AcDbEntity
  8
0
  6
Continuous
 62
     7
100
AcDbCircle
 10
48.5
 20
48.5
 30
0.0
 40
1.500000000000007
100
AcDbArc
 50
180.0
 51
270.0
  0
ARC
  5
64
330
1F
100
AcDbEntity
  8
0
  6
CENTERX2
 62
     7
100
AcDbCircle
 10
38.400754888
 20
45.0730135721
 30
0.0
 40
2.382037484001545
100
AcDbArc
 50
188.8543081883
 51
261.1456918117
  0
ARC
  5
65
330
1F
100
AcDbEntity
  8
0
  6
Continuous
 62
     7
100
AcDbCircle
 10
38.400754888
 20
45.0730135721
 30
0.0
 40
3.030432086215594
100
AcDbArc
 50
188.8543081883
 51
261.1456918117
  0
ARC
  5
66
330
1F
100
AcDbEntity
  8
0
  6
Continuous
 62
     7
100
AcDbCircle
 10
38.400754888
 20
45.0730135721
 30
0.0
 40
1.733642881787503
100
AcDbArc
 50
188.8543081883
 51
261.1456918117
  0
ARC
  5
67
330
1F
100
AcDbEntity
  8
0
  6
Continuous
 62
     7
100
AcDbCircle
 10
36.047104314
 20
44.7063644878
 30
0.0
 40
0.6483946022140492
100
AcDbArc
 50
8.8543081883
 51
188.8543081883
  0
ARC
  5
68
330
1F
100
AcDbEntity
  8
0
  6
Continuous
 62
     7
100
AcDbCircle
 10
38.0341058036
 20
42.7193629982
 30
0.0
 40
0.6483946022140421
100
AcDbArc
 50
261.1456918117
 51
81.1456918117
  0
ARC
  5
69
330
1F
100
AcDbEntity
  8
0
  6
CENTERX2
 62
     7
100
AcDbCircle
 10
45.0730135721
 20
38.400754888
 30
0.0
 40
2.382037484001536
100
AcDbArc
 50
188.8543081883
 51
261.1456918117
  0
ARC
  5
6A
330
1F
100
AcDbEntity
  8
0
  6
Continuous
 62
     7
100
AcDbCircle
 10
45.0730135721
 20
38.400754888
 30
0.0
 40
3.030432086215594
100
AcDbArc
 50
188.8543081883
 51
261.1456918117
  0
ARC
  5
6B
330
1F
100
AcDbEntity
  8
0
  6
Continuous
 62
     7
100
AcDbCircle
 10
45.0730135721
 20
38.400754888
 30
0.0
 40
1.733642881787502
100
AcDbArc
 50
188.8543081883
 51
261.1456918117
  0
ARC
  5
6C
330
1F
100
AcDbEntity
  8
0
  6
Continuous
 62
     7
100
AcDbCircle
 10
44.7063644878
 20
36.047104314
 30
0.0
 40
0.6483946022140643
100
AcDbArc
 50
261.1456918117
 51
81.1456918117
  0
ARC
  5
6D
330
1F
100
AcDbEntity
  8
0
  6
Continuous
 62
     7
100
AcDbCircle
 10
42.7193629982
 20
38.0341058036
 30
0.0
 40
0.6483946022140502
100
AcDbArc
 50
8.8543081883
 51
188.8543081883
  0
CIRCLE
  5
6E
330
1F
100
AcDbEntity
  8
0
  6
Continuous
 62
     7
100
AcDbCircle
 10
38.400754888
 20
45.0730135721
 30
0.0
 40
0.9999999999999976
  0
CIRCLE
  5
6F
330
1F
100
AcDbEntity
  8
0
  6
Continuous
 62
     7
100
AcDbCircle
 10
45.0730135721
 20
38.400754888
 30
0.0
 40
0.9999999999999976
  0
ARC
  5
70
330
1F
100
AcDbEntity
  8
0
  6
Continuous
 62
     7
100
AcDbCircle
 10
-48.5
 20
48.5
 30
0.0
 40
6.727588229455257
100
AcDbArc
 50
270.0
 51
12.8830956592
  0
ARC
  5
71
330
1F
100
AcDbEntity
  8
0
  6
Continuous
 62
     7
100
AcDbCircle
 10
48.5
 20
-48.5
 30
0.0
 40
6.727588229455248
100
AcDbArc
 50
77.1169043408
 51
180.0
  0
LINE
  5
72
330
1F
100
AcDbEntity
  8
0
  6
Continuous
 62
     7
100
AcDbLine
 10
-50.0
 20
50.0
 30
0.0
 11
50.0
 21
-50.0
 31
0.0
  0
LINE
  5
73
330
1F
100
AcDbEntity
  8
0
  6
Continuous
 62
     7
100
AcDbLine
 10
-50.0
 20
50.0
 30
0.0
 11
-41.9417652234
 21
50.0
 31
0.0
  0
LINE
  5
74
330
1F
100
AcDbEntity
  8
0
  6
Continuous
 62
     7
100
AcDbLine
 10
-50.0
 20
50.0
 30
0.0
 11
-50.0
 21
-50.0
 31
0.0
  0
LINE
  5
75
330
1F
100
AcDbEntity
  8
0
  6
Continuous
 62
     7
100
AcDbLine
 10
-50.0
 20
-50.0
 30
0.0
 11
50.0
 21
-50.0
 31
0.0
  0
LINE
  5
76
330
1F
100
AcDbEntity
  8
0
  6
Continuous
 62
     7
100
AcDbLine
 10
50.0
 20
50.0
 30
0.0
 11
50.0
 21
-50.0
 31
0.0
  0
LINE
  5
77
330
1F
100
AcDbEntity
  8
0
  6
CENTERX2
 62
     7
100
AcDbLine
 10
-50.0
 20
50.0
 30
0.0
 11
50.0
 21
-50.0
 31
0.0
  0
LINE
  5
78
330
1F
100
AcDbEntity
  8
0
  6
CENTERX2
 62
     7
100
AcDbLine
 10
-50.0
 20
-50.0
 30
0.0
 11
50.0
 21
50.0
 31
0.0
  0
LINE
  5
79
330
1F
100
AcDbEntity
  8
0
  6
CENTERX2
 62
     7
100
AcDbLine
 10
-50.0
 20
0.0
 30
0.0
 11
50.0
 21
0.0
 31
0.0
  0
LINE
  5
7A
330
1F
100
AcDbEntity
  8
0
  6
Continuous
 62
     7
100
AcDbLine
 10
-50.0
 20
0.0
 30
0.0
 11
0.0
 21
0.0
 31
0.0
  0
LINE
  5
7B
330
1F
100
AcDbEntity
  8
0
  6
Continuous
 62
     7
100
AcDbLine
 10
0.0
 20
0.0
 30
0.0
 11
0.0
 21
-50.0
 31
0.0
  0
LINE
  5
7C
330
1F
100
AcDbEntity
  8
0
  6
Continuous
 62
     7
100
AcDbLine
 10
0.0
 20
0.0
 30
0.0
 11
50.0
 21
50.0
 31
0.0
  0
LINE
  5
7D
330
1F
100
AcDbEntity
  8
0
  6
Continuous
 62
     7
100
AcDbLine
 10
3.3418470961
 20
-18.6134189766
 30
0.0
 11
14.5785560421
 21
-18.6134189766
 31
0.0
  0
LINE
  5
7E
330
1F
100
AcDbEntity
  8
0
  6
Continuous
 62
     7
100
AcDbLine
 10
-41.7724117705
 20
50.0
 30
0.0
 11
50.0
 21
50.0
 31
0.0
  0
LINE
  5
7F
330
1F
100
AcDbEntity
  8
0
  6
Continuous
 62
     7
100
AcDbLine
 10
-50.0
 20
50.0
 30
0.0
 11
-41.7724117705
 21
50.0
 31
0.0
  0
LINE
  5
80
330
1F
100
AcDbEntity
  8
0
  6
Continuous
 62
     7
100
AcDbLine
 10
0.0
 20
0.0
 30
0.0
 11
0.0
 21
50.0
 31
0.0
  0
LINE
  5
81
330
1F
100
AcDbEntity
  8
0
  6
Continuous
 62
     7
100
AcDbLine
 10
-47.749523257
 20
20.8908414222
 30
0.0
 11
-22.3939294438
 21
20.8908414222
 31
0.0
  0
LINE
  5
82
330
1F
100
AcDbEntity
  8
0
  6
Continuous
 62
     7
100
AcDbLine
 10
-47.749523257
 20
20.8908414222
 30
0.0
 11
-47.749523257
 21
6.9207758662
 31
0.0
  0
LINE
  5
83
330
1F
100
AcDbEntity
  8
0
  6
Continuous
 62
     7
100
AcDbLine
 10
-47.749523257
 20
6.9207758662
 30
0.0
 11
-22.3939294438
 21
6.9207758662
 31
0.0
  0
LINE
  5
84
330
1F
100
AcDbEntity
  8
0
  6
Continuous
 62
     7
100
AcDbLine
 10
-22.3939294438
 20
20.8908414222
 30
0.0
 11
-22.3939294438
 21
6.9207758662
 31
0.0
  0
LINE
  5
85
330
1F
100
AcDbEntity
  8
0
  6
CENTERX2
 62
     7
100
AcDbLine
 10
35.0
 20
42.5
 30
0.0
 11
42.5
 21
35.0
 31
0.0
  0
LINE
  5
86
330
1F
100
AcDbEntity
  8
0
  6
Continuous
 62
     7
100
AcDbLine
 10
35.0
 20
50.0
 30
0.0
 11
50.0
 21
50.0
 31
0.0
  0
LINE
  5
87
330
1F
100
AcDbEntity
  8
0
  6
Continuous
 62
     7
100
AcDbLine
 10
35.0
 20
50.0
 30
0.0
 11
35.0
 21
35.0
 31
0.0
  0
LINE
  5
88
330
1F
100
AcDbEntity
  8
0
  6
Continuous
 62
     7
100
AcDbLine
 10
35.0
 20
35.0
 30
0.0
 11
50.0
 21
35.0
 31
0.0
  0
LINE
  5
89
330
1F
100
AcDbEntity
  8
0
  6
Continuous
 62
     7
100
AcDbLine
 10
50.0
 20
50.0
 30
0.0
 11
50.0
 21
35.0
 31
0.0
  0
LINE
  5
8A
330
1F
100
AcDbEntity
  8
0
  6
Continuous
 62
     7
100
AcDbLine
 10
47.0
 20
50.0
 30
0.0
 11
50.0
 21
50.0
 31
0.0
  0
LINE
  5
8B
330
1F
100
AcDbEntity
  8
0
  6
Continuous
 62
     7
100
AcDbLine
 10
47.0
 20
50.0
 30
0.0
 11
47.0
 21
48.5
 31
0.0
  0
LINE
  5
8C
330
1F
100
AcDbEntity
  8
0
  6
Continuous
 62
     7
100
AcDbLine
 10
48.5
 20
47.0
 30
0.0
 11
50.0
 21
47.0
 31
0.0
  0
LINE
  5
8D
330
1F
100
AcDbEntity
  8
0
  6
Continuous
 62
     7
100
AcDbLine
 10
50.0
 20
50.0
 30
0.0
 11
50.0
 21
47.0
 31
0.0
  0
LINE
  5
8E
330
1F
100
AcDbEntity
  8
0
  6
Continuous
 62
     7
100
AcDbLine
 10
-50.0
 20
50.0
 30
0.0
 11
-50.0
 21
41.7724117705
 31
0.0
  0
LINE
  5
8F
330
1F
100
AcDbEntity
  8
0
  6
Continuous
 62
     7
100
AcDbLine
 10
-50.0
 20
41.7724117705
 30
0.0
 11
-48.5
 21
41.7724117705
 31
0.0
  0
LINE
  5
90
330
1F
100
AcDbEntity
  8
0
  6
Continuous
 62
     7
100
AcDbLine
 10
41.7724117705
 20
-50.0
 30
0.0
 11
41.7724117705
 21
-48.5
 31
0.0
  0
LINE
  5
91
330
1F
100
AcDbEntity
  8
0
  6
Continuous
 62
     7
100
AcDbLine
 10
50.0
 20
-50.0
 30
0.0
 11
50.0
 21
-41.9417652234
 31
0.0
  0
LINE
  5
92
330
1F
100
AcDbEntity
  8
0
  6
Continuous
 62
     7
100
AcDbLine
 10
50.0
 20
-50.0
 30
0.0
 11
41.7724117705
 21
-50.0
 31
0.0
  0
LINE
  5
93
330
1F
100
AcDbEntity
  8
0
  6
Continuous
 62
     7
100
AcDbLine
 10
3.3418470961
 20
-18.6134189766
 30
0.0
 11
3.3418470961
 21
-30.5046934923
 31
0.0
  0
LINE
  5
94
330
1F
100
AcDbEntity
  8
0
  6
Continuous
 62
     7
100
AcDbLine
 10
3.3418470961
 20
-30.5046934923
 30
0.0
 11
14.5785560421
 21
-30.5046934923
 31
0.0
  0
LINE
  5
95
330
1F
100
AcDbEntity
  8
0
  6
Continuous
 62
     7
100
AcDbLine
 10
14.5785560421
 20
-18.6134189766
 30
0.0
 11
14.5785560421
 21
-30.5046934923
 31
0.0
  0
LWPOLYLINE
  5
96
330
1F
100
AcDbEntity
  8
0
  6
Continuous
 62
     7
100
AcDbPolyline
 90
       12
 70
   128
 43
0.0
 10
-40.2561426163
 20
45.1555883439
 10
-39.7744785683
 20
44.6739176709
 10
-39.7744785683
 20
44.6739176709
 10
-42.2241981196
 20
42.2241981196
 10
-42.2241981196
 20
42.2241981196
 10
-42.4674873824
 20
42.4674873824
 10
-42.4674873824
 20
42.4674873824
 10
-40.257551485
 20
44.6774232798
 10
-40.257551485
 20
44.6774232798
 10
-40.6424673504
 20
45.0623391452
 10
-40.6424673504
 20
45.0623391452
 10
-40.2561492414
 20
45.1555883439
  0
LWPOLYLINE
  5
97
330
1F
100
AcDbEntity
  8
0
  6
Continuous
 62
     7
100
AcDbPolyline
 90
      106
 70
   128
 43
0.0
 10
-41.339725256
 20
2.4230769231
 10
-41.6538461538
 20
2.4230769231
 10
-41.6538461538
 20
2.4230769231
 10
-41.6454326923
 20
2.5478766026
 10
-41.6272035256
 20
2.6670673077
 10
-41.5998597756
 20
2.7799479167
 10
-41.5619991987
 20
2.8879206731
 10
-41.5150240385
 20
2.9895833333
 10
-41.4582331731
 20
3.086338141
 10
-41.3916266026
 20
3.1767828526
 10
-41.3152043269
 20
3.2616185897
 10
-41.2317708333
 20
3.3387419872
 10
-41.1427283654
 20
3.4053485577
 10
-41.0494791667
 20
3.4614383013
 10
-40.9520232372
 20
3.5077123397
 10
-40.8489583333
 20
3.5434695513
 10
-40.7416866987
 20
3.5694110577
 10
-40.6295072115
 20
3.5848357372
 10
-40.5124198718
 20
3.5897435897
 10
-40.5124198718
 20
3.5897435897
 10
-40.3974358974
 20
3.5848357372
 10
-40.2873597756
 20
3.5701121795
 10
-40.18359375
 20
3.5462740385
 10
-40.0847355769
 20
3.5126201923
 10
-39.9921875
 20
3.4684495192
 10
-39.9052483974
 20
3.4151642628
 10
-39.8232171474
 20
3.3527644231
 10
-39.7474959936
 20
3.2798477564
 10
-39.6787860577
 20
3.2006209936
 10
-39.6198918269
 20
3.1178886218
 10
-39.5694110577
 20
3.031650641
 10
-39.5280448718
 20
2.9426081731
 10
-39.496494391
 20
2.8493589744
 10
-39.4733573718
 20
2.7526041667
 10
-39.4600360577
 20
2.6530448718
 10
-39.4551282051
 20
2.5492788462
 10
-39.4551282051
 20
2.5492788462
 10
-39.4642427885
 20
2.4034455128
 10
-39.4915865385
 20
2.2625200321
 10
-39.5364583333
 20
2.1265024038
 10
-39.6002604167
 20
1.9946915064
 10
-39.6409254808
 20
1.9273838141
 10
-39.6900040064
 20
1.8537660256
 10
-39.7474959936
 20
1.7745392628
 10
-39.8134014423
 20
1.6904046474
 10
-39.8884214744
 20
1.5992588141
 10
-39.9711538462
 20
1.5032051282
 10
-40.0630008013
 20
1.4015424679
 10
-40.1632612179
 20
1.2935697115
 10
-40.1632612179
 20
1.2935697115
 10
-41.0389623397
 20
0.358974359
 10
-41.0389623397
 20
0.358974359
 10
-39.4102564103
 20
0.358974359
 10
-39.4102564103
 20
0.358974359
 10
-39.4102564103
 20
0.0
 10
-39.4102564103
 20
0.0
 10
-41.7884615385
 20
0.0
 10
-41.7884615385
 20
0.0
 10
-40.4310897436
 20
1.4485176282
 10
-40.4310897436
 20
1.4485176282
 10
-40.3322315705
 20
1.5522836538
 10
-40.2424879808
 20
1.6490384615
 10
-40.1618589744
 20
1.7387820513
 10
-40.0903445513
 20
1.8215144231
 10
-40.0279447115
 20
1.8979366987
 10
-39.9739583333
 20
1.9666466346
 10
-39.9297876603
 20
2.0290464744
 10
-39.8940304487
 20
2.0844350962
 10
-39.8393429487
 20
2.1896033654
 10
-39.8000801282
 20
2.2975761218
 10
-39.776943109
 20
2.4076522436
 10
-39.7692307692
 20
2.5212339744
 10
-39.7692307692
 20
2.5212339744
 10
-39.7727363782
 20
2.5927483974
 10
-39.7832532051
 20
2.6614583333
 10
-39.8000801282
 20
2.7273637821
 10
-39.8239182692
 20
2.7911658654
 10
-39.85546875
 20
2.8528645833
 10
-39.8933293269
 20
2.9110576923
 10
-39.9375
 20
2.9671474359
 10
-39.9893830128
 20
3.0211338141
 10
-40.0461738782
 20
3.0702123397
 10
-40.1057692308
 20
3.1129807692
 10
-40.1681690705
 20
3.1487379808
 10
-40.2340745192
 20
3.1781850962
 10
-40.3034855769
 20
3.2013221154
 10
-40.375
 20
3.2174479167
 10
-40.4500200321
 20
3.2272636218
 10
-40.5285456731
 20
3.2307692308
 10
-40.5285456731
 20
3.2307692308
 10
-40.6105769231
 20
3.2272636218
 10
-40.6891025641
 20
3.2174479167
 10
-40.7641225962
 20
3.2006209936
 10
-40.8356370192
 20
3.1774839744
 10
-40.9036458333
 20
3.148036859
 10
-40.9681490385
 20
3.1115785256
 10
-41.0291466346
 20
3.0681089744
 10
-41.0866386218
 20
3.0183293269
 10
-41.1392227564
 20
2.9629407051
 10
-41.1854967949
 20
2.901943109
 10
-41.226161859
 20
2.8353365385
 10
-41.2612179487
 20
2.7638221154
 10
-41.2899639423
 20
2.6866987179
 10
-41.3123998397
 20
2.6039663462
 10
-41.3292267628
 20
2.5163261218
 10
-41.3397435897
 20
2.4230769231
  0
LWPOLYLINE
  5
98
330
1F
100
AcDbEntity
  8
0
  6
Continuous
 62
     7
100
AcDbPolyline
 90
      106
 70
   128
 43
0.0
 10
2.4230759591
 20
-46.3525641026
 10
2.4230769231
 20
-46.0384615385
 10
2.4230769231
 20
-46.0384615385
 10
2.5478766026
 20
-46.046875
 10
2.6670673077
 20
-46.0651041667
 10
2.7799479167
 20
-46.0924479167
 10
2.8879206731
 20
-46.1303084936
 10
2.9895833333
 20
-46.1772836538
 10
3.086338141
 20
-46.234775641
 10
3.1767828526
 20
-46.3013822115
 10
3.2616185897
 20
-46.3778044872
 10
3.3387419872
 20
-46.4612379808
 10
3.4053485577
 20
-46.5495793269
 10
3.4614383013
 20
-46.6428285256
 10
3.5077123397
 20
-46.7402844551
 10
3.5434695513
 20
-46.843349359
 10
3.5694110577
 20
-46.9506209936
 10
3.5848357372
 20
-47.0628004808
 10
3.5897435897
 20
-47.1798878205
 10
3.5897435897
 20
-47.1798878205
 10
3.5848357372
 20
-47.2948717949
 10
3.5701121795
 20
-47.4049479167
 10
3.5462740385
 20
-47.5087139423
 10
3.5126201923
 20
-47.6075721154
 10
3.4684495192
 20
-47.7001201923
 10
3.4151642628
 20
-47.7870592949
 10
3.3527644231
 20
-47.8690905449
 10
3.2798477564
 20
-47.9448116987
 10
3.2006209936
 20
-48.0135216346
 10
3.1178886218
 20
-48.0724158654
 10
3.031650641
 20
-48.1228966346
 10
2.9426081731
 20
-48.1642628205
 10
2.8493589744
 20
-48.1958133013
 10
2.7526041667
 20
-48.2189503205
 10
2.6530448718
 20
-48.2322716346
 10
2.5492788462
 20
-48.2371794872
 10
2.5492788462
 20
-48.2371794872
 10
2.4034455128
 20
-48.2280649038
 10
2.2625200321
 20
-48.2007211538
 10
2.1265024038
 20
-48.155849359
 10
1.9946915064
 20
-48.0920472756
 10
1.9273838141
 20
-48.0513822115
 10
1.8537660256
 20
-48.0023036859
 10
1.7745392628
 20
-47.9448116987
 10
1.6904046474
 20
-47.87890625
 10
1.5992588141
 20
-47.8038862179
 10
1.5032051282
 20
-47.7211538462
 10
1.4015424679
 20
-47.629306891
 10
1.2935697115
 20
-47.5290464744
 10
1.2935697115
 20
-47.5290464744
 10
0.358974359
 20
-46.6533453526
 10
0.358974359
 20
-46.6533453526
 10
0.358974359
 20
-48.2820512821
 10
0.358974359
 20
-48.2820512821
 10
0.0
 20
-48.2820512821
 10
0.0
 20
-48.2820512821
 10
0.0
 20
-45.9038461538
 10
0.0
 20
-45.9038461538
 10
1.4485176282
 20
-47.2612179487
 10
1.4485176282
 20
-47.2612179487
 10
1.5522836538
 20
-47.3600761218
 10
1.6490384615
 20
-47.4498197115
 10
1.7387820513
 20
-47.5304487179
 10
1.8215144231
 20
-47.601963141
 10
1.8979366987
 20
-47.6650641026
 10
1.9666466346
 20
-47.718349359
 10
2.0290464744
 20
-47.7632211538
 10
2.0844350962
 20
-47.7989783654
 10
2.1896033654
 20
-47.8529647436
 10
2.2975761218
 20
-47.8922275641
 10
2.4076522436
 20
-47.9153645833
 10
2.5212339744
 20
-47.9230769231
 10
2.5212339744
 20
-47.9230769231
 10
2.5927483974
 20
-47.9195713141
 10
2.6614583333
 20
-47.9090544872
 10
2.7273637821
 20
-47.8922275641
 10
2.7911658654
 20
-47.8676883013
 10
2.8528645833
 20
-47.8368389423
 10
2.9110576923
 20
-47.7989783654
 10
2.9671474359
 20
-47.7548076923
 10
3.0211338141
 20
-47.7029246795
 10
3.0702123397
 20
-47.6461338141
 10
3.1129807692
 20
-47.5865384615
 10
3.1487379808
 20
-47.5241386218
 10
3.1781850962
 20
-47.4582331731
 10
3.2013221154
 20
-47.3888221154
 10
3.2174479167
 20
-47.3173076923
 10
3.2272636218
 20
-47.2422876603
 10
3.2307692308
 20
-47.1637620192
 10
3.2307692308
 20
-47.1637620192
 10
3.2272636218
 20
-47.0817307692
 10
3.2174479167
 20
-47.0032051282
 10
3.2006209936
 20
-46.9281850962
 10
3.1774839744
 20
-46.8566706731
 10
3.148036859
 20
-46.788661859
 10
3.1115785256
 20
-46.7248597756
 10
3.0681089744
 20
-46.6638621795
 10
3.0183293269
 20
-46.6063701923
 10
2.9629407051
 20
-46.5537860577
 10
2.901943109
 20
-46.5068108974
 10
2.8353365385
 20
-46.4661458333
 10
2.7638221154
 20
-46.4310897436
 10
2.6866987179
 20
-46.4030448718
 10
2.6039663462
 20
-46.3799078526
 10
2.5163261218
 20
-46.3630809295
 10
2.4230769231
 20
-46.3525641026
  0
LWPOLYLINE
  5
99
330
1F
100
AcDbEntity
  8
0
  6
Continuous
 62
     7
100
AcDbPolyline
 90
      184
 70
   128
 43
0.0
 10
40.4521822929
 20
44.2158119113
 10
40.2018896357
 20
43.9655114305
 10
40.2018896357
 20
43.9655114305
 10
40.1472021357
 20
44.0580595075
 10
40.101629219
 20
44.1506075844
 10
40.0630675203
 20
44.2417534177
 10
40.0336204049
 20
44.3336003728
 10
40.0118856293
 20
44.4240450844
 10
39.9992654369
 20
44.5144897959
 10
39.9936564626
 20
44.6042333857
 10
39.9971620716
 20
44.6932758536
 10
40.0083800203
 20
44.780916078
 10
40.0266091869
 20
44.8657518152
 10
40.0525506934
 20
44.9477830652
 10
40.0855034177
 20
45.027009828
 10
40.12546736
 20
45.1027309818
 10
40.1731436421
 20
45.1756476485
 10
40.2278311421
 20
45.245759828
 10
40.2902309818
 20
45.3130675203
 10
40.2902309818
 20
45.3130675203
 10
40.3897902767
 20
45.4014088664
 10
40.4970619113
 20
45.4764288985
 10
40.6120458857
 20
45.536024251
 10
40.7347421998
 20
45.5822982895
 10
40.8609441228
 20
45.6131476485
 10
40.9850426805
 20
45.6271700844
 10
41.1070378728
 20
45.6236644754
 10
41.2276308216
 20
45.6033319434
 10
41.3426147959
 20
45.5682758536
 10
41.4470819434
 20
45.5198984498
 10
41.5424345075
 20
45.4589008536
 10
41.6279713664
 20
45.3845819434
 10
41.6279713664
 20
45.3845819434
 10
41.7001869113
 20
45.3025506934
 10
41.7583800203
 20
45.214910469
 10
41.8025506934
 20
45.1216612703
 10
41.8326989305
 20
45.0228030972
 10
41.8488247318
 20
44.917634828
 10
41.851629219
 20
44.8068575844
 10
41.8397101485
 20
44.6904713664
 10
41.8144697639
 20
44.5684761741
 10
41.8144697639
 20
44.5684761741
 10
41.9385683216
 20
44.6126468472
 10
42.063368001
 20
44.6413928408
 10
42.1881676805
 20
44.6526107895
 10
42.3136684818
 20
44.6484040587
 10
42.3136684818
 20
44.6484040587
 10
42.4006075844
 20
44.6364849882
 10
42.484041078
 20
44.6182558216
 10
42.5639689626
 20
44.5930154369
 10
42.6403912382
 20
44.562166078
 10
42.7126067831
 20
44.524305501
 10
42.7820178408
 20
44.480134828
 10
42.8472221677
 20
44.4289529369
 10
42.9096220075
 20
44.3721620716
 10
42.9096220075
 20
44.3721620716
 10
43.0056756934
 20
44.2620859498
 10
43.085603578
 20
44.141493001
 10
43.1494056613
 20
44.0089809818
 10
43.1970819434
 20
43.8652510139
 10
43.2265290587
 20
43.7159120716
 10
43.2349425203
 20
43.5679753728
 10
43.222322328
 20
43.4200386741
 10
43.1893696036
 20
43.2728030972
 10
43.136785469
 20
43.129774251
 10
43.0659721677
 20
42.9944577446
 10
42.976228578
 20
42.8661524562
 10
42.8682558216
 20
42.7448583857
 10
42.8682558216
 20
42.7448583857
 10
42.7883279369
 20
42.6705394754
 10
42.7055955652
 20
42.6046340267
 10
42.6200587062
 20
42.5478431613
 10
42.5324184818
 20
42.5001668793
 10
42.4426748921
 20
42.4616051805
 10
42.3501268152
 20
42.4321580652
 10
42.2554753728
 20
42.4111244113
 10
42.1580194434
 20
42.3992053408
 10
42.0591612703
 20
42.3971019754
 10
41.9596019754
 20
42.4048143152
 10
41.8593415587
 20
42.42234236
 10
41.7583800203
 20
42.44968611
 10
41.65671736
 20
42.4868455652
 10
41.5536524562
 20
42.5345218472
 10
41.4505875523
 20
42.5913127126
 10
41.3461204049
 20
42.6586204049
 10
41.3461204049
 20
42.6586204049
 10
41.5859040587
 20
42.8984040587
 10
41.5859040587
 20
42.8984040587
 10
41.660222969
 20
42.8577389946
 10
41.7317373921
 20
42.8226829049
 10
41.8011484498
 20
42.7932357895
 10
41.8684561421
 20
42.7700987703
 10
41.9329593472
 20
42.7525707254
 10
41.9953591869
 20
42.7406516549
 10
42.0549545395
 20
42.7350426805
 10
42.1124465267
 20
42.7350426805
 10
42.1124465267
 20
42.7350426805
 10
42.183259828
 20
42.7427550203
 10
42.2519697639
 20
42.7567774562
 10
42.319978578
 20
42.7785122318
 10
42.3858840267
 20
42.8065571036
 10
42.44968611
 20
42.8409120716
 10
42.5127870716
 20
42.8829793793
 10
42.5737846677
 20
42.9313567831
 10
42.6333800203
 20
42.9867454049
 10
42.6333800203
 20
42.9867454049
 10
42.69577986
 20
43.0540530972
 10
42.7497662382
 20
43.1234641549
 10
42.7960402767
 20
43.1942774562
 10
42.8339008536
 20
43.2671941228
 10
42.8626468472
 20
43.3408119113
 10
42.883680501
 20
43.4172341869
 10
42.8970018152
 20
43.4950587062
 10
42.9012085459
 20
43.574285469
 10
42.8984040587
 20
43.65281111
 10
42.8885883536
 20
43.7285322639
 10
42.8724625523
 20
43.8007478087
 10
42.8493255331
 20
43.8694577446
 10
42.8191772959
 20
43.9346620716
 10
42.7827189626
 20
43.9963607895
 10
42.7392494113
 20
44.0552550203
 10
42.6887686421
 20
44.1106436421
 10
42.6887686421
 20
44.1106436421
 10
42.6130474882
 20
44.175847969
 10
42.5303151164
 20
44.2291332254
 10
42.4384681613
 20
44.2697982895
 10
42.3396099882
 20
44.2978431613
 10
42.2372462062
 20
44.312566719
 10
42.1355835459
 20
44.312566719
 10
42.0346220075
 20
44.2985442831
 10
41.9343615908
 20
44.2690971677
 10
41.8831796998
 20
44.2480635139
 10
41.8284921998
 20
44.2207197639
 10
41.7710002126
 20
44.1870659177
 10
41.7107037382
 20
44.1478030972
 10
41.6469016549
 20
44.1015290587
 10
41.5795939626
 20
44.0496460459
 10
41.5094817831
 20
43.9921540587
 10
41.4358639946
 20
43.9276508536
 10
41.4358639946
 20
43.9276508536
 10
41.2115050203
 20
44.152009828
 10
41.2115050203
 20
44.152009828
 10
41.2900306613
 20
44.2382478087
 10
41.3573383536
 20
44.3272902767
 10
41.4134280972
 20
44.4205394754
 10
41.4582998921
 20
44.5172942831
 10
41.4912526164
 20
44.613347969
 10
41.5101829049
 20
44.7037926805
 10
41.5157918793
 20
44.7893295395
 10
41.5080795395
 20
44.8685563023
 10
41.4884481293
 20
44.9428752126
 10
41.4597021357
 20
45.0115851485
 10
41.4204393152
 20
45.0739849882
 10
41.3713607895
 20
45.1307758536
 10
41.3713607895
 20
45.1307758536
 10
41.3299946036
 20
45.1679353087
 10
41.2865250523
 20
45.2001869113
 10
41.2395498921
 20
45.2268295395
 10
41.1904713664
 20
45.2478631934
 10
41.1385883536
 20
45.2639889946
 10
41.0846019754
 20
45.2745058216
 10
41.0271099882
 20
45.2801147959
 10
40.9675146357
 20
45.2801147959
 10
40.9072181613
 20
45.2745058216
 10
40.8483239305
 20
45.2632878728
 10
40.7915330652
 20
45.2464609498
 10
40.7361444434
 20
45.2233239305
 10
40.6814569434
 20
45.1952790587
 10
40.6288728087
 20
45.1609240908
 10
40.5783920395
 20
45.1202590267
 10
40.5286123921
 20
45.07468611
 10
40.5286123921
 20
45.07468611
 10
40.4577990908
 20
44.99265486
 10
40.4031115908
 20
44.9050146357
 10
40.3652510139
 20
44.8110643152
 10
40.34421736
 20
44.7122061421
 10
40.340711751
 20
44.6603231293
 10
40.3414128728
 20
44.6049345075
 10
40.347722969
 20
44.5474425203
 10
40.3589409177
 20
44.4864449241
 10
40.3743655972
 20
44.4233439626
 10
40.395399251
 20
44.3567373921
 10
40.4213407575
 20
44.2880274562
 10
40.4521901164
 20
44.2158119113
  0
LWPOLYLINE
  5
9A
330
1F
100
AcDbEntity
  8
0
  6
Continuous
 62
     7
100
AcDbPolyline
 90
       20
 70
   128
 43
0.0
 10
-3.5897418857
 20
49.160556891
 10
-3.5897435897
 20
49.2243589744
 10
-3.5897435897
 20
49.2243589744
 10
-1.1666666667
 20
49.2243589744
 10
-1.1666666667
 20
49.2243589744
 10
-1.1666666667
 20
49.6282051282
 10
-1.1666666667
 20
49.6282051282
 10
-0.8076923077
 20
49.6282051282
 10
-0.8076923077
 20
49.6282051282
 10
-0.8076923077
 20
49.2243589744
 10
-0.8076923077
 20
49.2243589744
 10
0.0
 20
49.2243589744
 10
0.0
 20
49.2243589744
 10
0.0
 20
48.9102564103
 10
0.0
 20
48.9102564103
 10
-0.8076923077
 20
48.9102564103
 10
-0.8076923077
 20
48.9102564103
 10
-0.8076923077
 20
47.25
 10
-0.8076923077
 20
47.25
 10
-3.5897435897
 20
49.160556891
  0
LWPOLYLINE
  5
9B
330
1F
100
AcDbEntity
  8
0
  6
Continuous
 62
     7
100
AcDbPolyline
 90
        6
 70
   128
 43
0.0
 10
-1.1666659266
 20
48.9102564103
 10
-2.6866987179
 20
48.9102564103
 10
-2.6866987179
 20
48.9102564103
 10
-1.1666666667
 20
47.8669871795
 10
-1.1666666667
 20
47.8669871795
 10
-1.1666666667
 20
48.9102564103
  0
POINT
  5
9C
330
1F
100
AcDbEntity
  8
0
  6
Continuous
 62
     7
100
AcDbPoint
 10
0.0
 20
0.0
 30
0.0
  0
POINT
  5
9D
330
1F
100
AcDbEntity
  8
0
  6
Continuous
 62
     7
100
AcDbPoint
 10
36.71640003
 20
43.3886587142
 30
0.0
  0
POINT
  5
9E
330
1F
100
AcDbEntity
  8
0
  6
Continuous
 62
     7
100
AcDbPoint
 10
43.3886587142
 20
36.71640003
 30
0.0
  0
ENDSEC
  0
SECTION
  2
OBJECTS
  0
DICTIONARY
  5
C
330
0
100
AcDbDictionary
281
     1
  3
ACAD_GROUP
350
D
  3
ACAD_LAYOUT
350
1A
  3
ACAD_MLINESTYLE
350
17
  3
ACAD_PLOTSETTINGS
350
19
  3
ACAD_PLOTSTYLENAME
350
E
  3
ACAD_SCALELIST
350
47
  3
DWGPROPS
350
9F
  0
DICTIONARY
  5
D
102
{ACAD_REACTORS
330
C
102
}
330
C
100
AcDbDictionary
281
     1
  0
DICTIONARY
  5
1A
102
{ACAD_REACTORS
330
C
102
}
330
C
100
AcDbDictionary
281
     1
  3
Layout1
350
1E
  3
Layout2
350
26
  3
Model
350
22
  0
DICTIONARY
  5
17
102
{ACAD_REACTORS
330
C
102
}
330
C
100
AcDbDictionary
281
     1
  3
Standard
350
18
  0
DICTIONARY
  5
19
102
{ACAD_REACTORS
330
C
102
}
330
C
100
AcDbDictionary
281
     1
  0
ACDBDICTIONARYWDFLT
  5
E
102
{ACAD_REACTORS
330
C
102
}
330
C
100
AcDbDictionary
281
     1
  3
Normal
350
F
100
AcDbDictionaryWithDefault
340
F
  0
DICTIONARY
  5
47
102
{ACAD_REACTORS
330
C
102
}
330
C
100
AcDbDictionary
281
     1
  3
A0
350
48
  3
A1
350
49
  3
A2
350
4A
  3
A3
350
4B
  3
A4
350
4C
  3
A5
350
4D
  3
A6
350
4E
  3
A7
350
4F
  3
A8
350
50
  3
A9
350
51
  3
B0
350
52
  3
B1
350
53
  3
B2
350
54
  3
B3
350
55
  3
B4
350
56
  3
B5
350
57
  3
B6
350
58
  0
XRECORD
  5
9F
102
{ACAD_REACTORS
330
C
102
}
330
C
100
AcDbXrecord
280
     1
  1
DWGPROPS COOKIE
  2

  3

  4

  6

  7

  8
mergo
  9

300
=
301
=
302
=
303
=
304
=
305
=
306
=
307
=
308
=
309
=
 40
0.0
 41
2460058.695633276
 42
2460058.69581559
  1

 90
        0
  0
LAYOUT
  5
1E
102
{ACAD_REACTORS
330
1A
102
}
330
1A
100
AcDbPlotSettings
  1

  2
none_device
  4

  6

 40
0.0
 41
0.0
 42
0.0
 43
0.0
 44
0.0
 45
0.0
 46
0.0
 47
0.0
 48
0.0
 49
0.0
140
0.0
141
0.0
142
1.0
143
1.0
 70
   688
 72
     1
 73
     0
 74
     5
  7

 75
    16
147
1.0
148
0.0
149
0.0
100
AcDbLayout
  1
Layout1
 70
     1
 71
     1
 10
0.0
 20
0.0
 11
420.0
 21
297.0
 12
0.0
 22
0.0
 32
0.0
 14
1.0000000000E+20
 24
1.0000000000E+20
 34
1.0000000000E+20
 15
-1.0000000000E+20
 25
-1.0000000000E+20
 35
-1.0000000000E+20
146
0.0
 13
0.0
 23
0.0
 33
0.0
 16
1.0
 26
0.0
 36
0.0
 17
0.0
 27
1.0
 37
0.0
 76
     0
330
1B
  0
LAYOUT
  5
26
102
{ACAD_REACTORS
330
1A
102
}
330
1A
100
AcDbPlotSettings
  1

  2
none_device
  4

  6

 40
0.0
 41
0.0
 42
0.0
 43
0.0
 44
0.0
 45
0.0
 46
0.0
 47
0.0
 48
0.0
 49
0.0
140
0.0
141
0.0
142
1.0
143
1.0
 70
   688
 72
     1
 73
     0
 74
     5
  7

 75
    16
147
1.0
148
0.0
149
0.0
100
AcDbLayout
  1
Layout2
 70
     1
 71
     2
 10
0.0
 20
0.0
 11
0.0
 21
0.0
 12
0.0
 22
0.0
 32
0.0
 14
0.0
 24
0.0
 34
0.0
 15
0.0
 25
0.0
 35
0.0
146
0.0
 13
0.0
 23
0.0
 33
0.0
 16
1.0
 26
0.0
 36
0.0
 17
0.0
 27
1.0
 37
0.0
 76
     0
330
23
  0
LAYOUT
  5
22
102
{ACAD_REACTORS
330
1A
102
}
330
1A
100
AcDbPlotSettings
  1

  2
none_device
  4
ANSI_A_(11.00_x_8.50_Inches)
  6

 40
6.35
 41
19.05
 42
6.35000508
 43
19.05000254
 44
279.4
 45
215.9
 46
133.34999746
 47
88.89999873
 48
0.0
 49
0.0
140
0.0
141
0.0
142
0.08415
143
1.0
 70
  1696
 72
     0
 73
     0
 74
     0
  7

 75
     0
147
0.0179189148
148
-1300.4909072572
149
0.0
100
AcDbLayout
  1
Model
 70
     1
 71
     0
 10
0.0
 20
0.0
 11
420.0
 21
297.0
 12
0.0
 22
0.0
 32
0.0
 14
-50.0
 24
-50.0
 34
0.0
 15
50.0
 25
50.0
 35
0.0
146
0.0
 13
0.0
 23
0.0
 33
0.0
 16
1.0
 26
0.0
 36
0.0
 17
0.0
 27
1.0
 37
0.0
 76
     0
330
1F
331
29
  0
MLINESTYLE
  5
18
102
{ACAD_REACTORS
330
17
102
}
330
17
100
AcDbMlineStyle
  2
Standard
 70
     0
  3

 62
   256
 51
90.0
 52
90.0
 71
     2
 49
0.5
 62
   256
  6
BYLAYER
 49
-0.5
 62
   256
  6
BYLAYER
  0
ACDBPLACEHOLDER
  5
F
102
{ACAD_REACTORS
330
E
102
}
330
E
  0
SCALE
  5
48
102
{ACAD_REACTORS
330
47
102
}
330
47
100
AcDbScale
 70
     0
300
1:1
140
1.0
141
1.0
290
     1
  0
SCALE
  5
49
102
{ACAD_REACTORS
330
47
102
}
330
47
100
AcDbScale
 70
     0
300
1:2
140
1.0
141
2.0
290
     0
  0
SCALE
  5
4A
102
{ACAD_REACTORS
330
47
102
}
330
47
100
AcDbScale
 70
     0
300
1:4
140
1.0
141
4.0
290
     0
  0
SCALE
  5
4B
102
{ACAD_REACTORS
330
47
102
}
330
47
100
AcDbScale
 70
     0
300
1:5
140
1.0
141
5.0
290
     0
  0
SCALE
  5
4C
102
{ACAD_REACTORS
330
47
102
}
330
47
100
AcDbScale
 70
     0
300
1:8
140
1.0
141
8.0
290
     0
  0
SCALE
  5
4D
102
{ACAD_REACTORS
330
47
102
}
330
47
100
AcDbScale
 70
     0
300
1:10
140
1.0
141
10.0
290
     0
  0
SCALE
  5
4E
102
{ACAD_REACTORS
330
47
102
}
330
47
100
AcDbScale
 70
     0
300
1:16
140
1.0
141
16.0
290
     0
  0
SCALE
  5
4F
102
{ACAD_REACTORS
330
47
102
}
330
47
100
AcDbScale
 70
     0
300
1:20
140
1.0
141
20.0
290
     0
  0
SCALE
  5
50
102
{ACAD_REACTORS
330
47
102
}
330
47
100
AcDbScale
 70
     0
300
1:30
140
1.0
141
30.0
290
     0
  0
SCALE
  5
51
102
{ACAD_REACTORS
330
47
102
}
330
47
100
AcDbScale
 70
     0
300
1:40
140
1.0
141
40.0
290
     0
  0
SCALE
  5
52
102
{ACAD_REACTORS
330
47
102
}
330
47
100
AcDbScale
 70
     0
300
1:50
140
1.0
141
50.0
290
     0
  0
SCALE
  5
53
102
{ACAD_REACTORS
330
47
102
}
330
47
100
AcDbScale
 70
     0
300
1:100
140
1.0
141
100.0
290
     0
  0
SCALE
  5
54
102
{ACAD_REACTORS
330
47
102
}
330
47
100
AcDbScale
 70
     0
300
2:1
140
2.0
141
1.0
290
     0
  0
SCALE
  5
55
102
{ACAD_REACTORS
330
47
102
}
330
47
100
AcDbScale
 70
     0
300
4:1
140
4.0
141
1.0
290
     0
  0
SCALE
  5
56
102
{ACAD_REACTORS
330
47
102
}
330
47
100
AcDbScale
 70
     0
300
8:1
140
8.0
141
1.0
290
     0
  0
SCALE
  5
57
102
{ACAD_REACTORS
330
47
102
}
330
47
100
AcDbScale
 70
     0
300
10:1
140
10.0
141
1.0
290
     0
  0
SCALE
  5
58
102
{ACAD_REACTORS
330
47
102
}
330
47
100
AcDbScale
 70
     0
300
100:1
140
100.0
141
1.0
290
     0
  0
ENDSEC
  0
EOF
